<?xml version="1.0" encoding="utf-8"?>
<!-- Generator: Adobe Illustrator 21.0.0, SVG Export Plug-In . SVG Version: 6.00 Build 0)  -->
<svg version="1.1" id="iso_color_1" xmlns="http://www.w3.org/2000/svg" xmlns:xlink="http://www.w3.org/1999/xlink" x="0px"
	 y="0px" viewBox="0 0 814 767" style="enable-background:new 0 0 814 767;" xml:space="preserve">
<style type="text/css">
	.st0{fill:#FFC34A;}
	.st1{fill:#FFFFFF;}
</style>
<title>SnV_Logo_Circular</title>
<circle class="st0" cx="375" cy="379.4" r="375"/>
<path class="st1" d="M430.5,767C219.1,767,47,594.9,47,383.5S219,0,430.5,0S814,172,814,383.5S642,767,430.5,767z M430.5,17
	C228.4,17,64,181.4,64,383.5S228.4,750,430.5,750S797,585.6,797,383.5S632.6,17,430.5,17L430.5,17z"/>
<path d="M691.8,252.4c6.5,3.1,9.6,10,6.9,16.9L589.5,537.1c-2.6,6.6-10.1,9.8-16.6,7.1c-3.3-1.3-5.8-3.9-7.1-7.1L456.6,269.3
	c-2.3-6.9,0.4-13.8,7.3-16.9c6.6-2.4,13.8,0.8,16.5,7.3l97.7,239.1l97.3-239.1C678.1,253.3,685.3,250.1,691.8,252.4z M521.3,252.4
	c6.9-2.3,14.2,0.8,16.9,7.3l39.8,97l39.5-97c2.3-6.5,10-9.6,16.5-7.3c6.5,2.8,9.6,10.2,7.3,16.9l-51.7,126.1
	c-4.2,10.4-19.2,10.4-23.8,0l-51-126.1C511.8,262.4,515.2,255.5,521.3,252.4L521.3,252.4z"/>
<path d="M195.6,492.3c59,31.4,139.1,23.4,139.1-47.5c0-52.5-69-62.1-88.5-77.8c-30.7-24.1-14.6-92,80.9-53.3
	c14.9,6.1,5.7,29.9-10,23.4c-57.9-23.4-67.8,0.4-55.2,10.3c14.2,10.7,98.1,26.1,98.1,97.3c0,70.1-62.1,103.1-133.7,85.8
	c-15-3.1-29.4-8.4-42.9-15.7C168.8,507.2,180.7,484.6,195.6,492.3z M324,285.8c-34.5-12.3-75.9-18.8-101.2,9.2
	c-20.7,21.8-26,62.1,1.5,85.8c33.3,29.9,80.9,23.4,83.5,64c1.1,21.5-17.6,37.2-38.3,38.7c-24.9,1.5-55.9-4.6-81.2-23
	c-13.4-9.6,1.5-30.3,14.9-20.7c29.5,21.5,81.2,25.3,78.9,6.1c-1.5-18-39.5-14.9-75.1-46c-55.6-48.7-21.8-145.6,57.1-149.4
	c23-1.1,41.8,1.9,68.6,11.1C348.5,267,340.1,291.5,324,285.8z"/>
<path class="st1" d="M401.3,373.1c0,2.8-1.1,5.5-3.2,7.5c-4.2,4.1-10.9,4.1-15.1,0c-2.1-1.9-3.2-4.7-3.2-7.5v-15.9
	c0.2-5.9,5.1-10.6,11-10.4c5.7,0.2,10.2,4.7,10.4,10.4V373.1z"/>
<path class="st1" d="M473.2,467.1h-0.5c-15.1,0.3-27.6-11.7-27.9-26.8c0-0.4,0-0.7,0-1.1v-38.5c0-5.7-4.7-10.3-10.4-10.4
	c-2.8-0.1-5.5,1-7.5,3c-2,1.9-3.1,4.6-3,7.4V430c0.1,2.3-0.8,4.6-2.5,6.3c-1.7,1.6-4,2.5-6.3,2.4c-4.5,0.3-8.4-3.2-8.7-7.7
	c0-0.3,0-0.6,0-0.9v-29.4c0-15.4,12.5-27.9,27.9-27.9c15.4,0,27.9,12.5,27.9,27.9l0,0v38.5c-0.1,5.7,4.5,10.4,10.3,10.5
	c0.1,0,0.1,0,0.2,0h0.5c4.6-0.2,8.6,3.4,8.8,8c0,0.3,0,0.5,0,0.8c0.1,2.3-0.8,4.6-2.5,6.3C477.8,466.4,475.6,467.2,473.2,467.1z"/>
</svg>
